<?xml version="1.0" encoding="UTF-8"?>
<svg width="67px" height="66px" viewBox="0 0 67 66" version="1.1" xmlns="http://www.w3.org/2000/svg" xmlns:xlink="http://www.w3.org/1999/xlink">
    <!-- Generator: Sketch 51.2 (57519) - http://www.bohemiancoding.com/sketch -->
    <title>umbrella</title>
    <desc>Created with Sketch.</desc>
    <defs></defs>
    <g id="umbrella" stroke="none" stroke-width="1" fill="none" fill-rule="evenodd">
        <path d="M67,32.9 C67,33.4 66.8,33.9 66.4,34.3 C66,34.7 65.5,34.9 64.9,34.9 L36,34.9 L36,55.8 C36,58.6 35,61 33,63 C31,65 28.6,66 25.8,66 C23,66 20.6,65 18.6,63 C16.6,61 15.6,58.6 15.6,55.8 C15.6,55.2 15.8,54.7 16.2,54.3 C16.6,53.9 17.1,53.7 17.6,53.7 C18.1,53.7 18.7,53.9 19.1,54.3 C19.5,54.7 19.7,55.2 19.7,55.8 C19.7,57.4 20.3,58.9 21.4,60.1 C22.5,61.3 24,61.9 25.7,61.9 C27.4,61.9 28.8,61.3 30,60.1 C31.2,58.9 31.8,57.5 31.8,55.8 L31.8,34.9 L2.9,34.9 C2.3,34.9 1.8,34.7 1.4,34.3 C1,33.9 0.8,33.4 0.8,32.9 C0.8,24.9 3.6,18.5 9,13.8 C14.4,9.1 22.1,6.5 31.7,6.3 L31.7,2.2 C31.7,1.6 31.9,1.1 32.3,0.7 C32.7,0.3 33.2,0.1 33.7,0.1 C34.2,0.1 34.8,0.3 35.2,0.7 C35.6,1.1 35.8,1.6 35.8,2.2 L35.8,6.3 C45.4,6.6 53,9.1 58.5,13.8 C64,18.5 67,24.9 67,32.9 Z M62.9,30.8 C62.4,24.3 59.6,19.2 54.5,15.6 C49.4,12 42.6,10.2 33.9,10.2 C25.2,10.2 18.4,12 13.4,15.6 C8.4,19.2 5.6,24.3 5.1,30.8 L62.9,30.8 Z" id="_xE053_-copy" fill="#000000" fill-rule="nonzero"></path>
    </g>
</svg>